# xmcd CD database file
#
# Track frame offsets:
#	150
#	12903
#	29715
#	40799
#	53089
#	64702
#	79292
#	90162
#	103206
#	114628
#
# Disc length: 1660 seconds
#
# Revision: 0
# Processed by: cddbd v1.5.2PL0 Copyright (c) Steve Scherf et al.
# Submitted via: CDex 1.51
#
DISCID=7b067a0a
DTITLE=Various Artist - Cherished Country Classics
DYEAR=1900
DGENRE=Country
TTITLE0=Charlie Rich - The Most Beautiful Girl
TTITLE1=Merle Haggard - Today I Started Loving You Again
TTITLE2=Johnny Cash - I Love You Because
TTITLE3=Willie Nelson - Shelter Of My Arms
TTITLE4=Patsy Cline - Today, Tomorrow and Forever
TTITLE5=Don Gibson - I Can't Stop Loving You
TTITLE6=Hank Williams - I Can't Help It If I'm Still In Love With You
TTITLE7=Bobby Helms - My Special Angel
TTITLE8=Donna Fargo - The Happiest Girl In The Whole U.S.A
TTITLE9=Jerry Lee Lewis - You Are My Sunshine
EXTD=
EXTT0=
EXTT1=
EXTT2=
EXTT3=
EXTT4=
EXTT5=
EXTT6=
EXTT7=
EXTT8=
EXTT9=
PLAYORDER=
